<svg xmlns="http://www.w3.org/2000/svg" width="1100" height="850" viewBox="0 0 1100 850" role="img" aria-label="Photo: new patient consultation">
  <defs>
    <linearGradient id="g" x1="0" y1="0" x2="1" y2="1">
      <stop offset="0" stop-color="#eef4f6"/>
      <stop offset="1" stop-color="#d3e5ea"/>
    </linearGradient>
    <pattern id="dots" width="26" height="26" patternUnits="userSpaceOnUse">
      <circle cx="2" cy="2" r="1.4" fill="#14a0b3" opacity="0.16"/>
    </pattern>
  </defs>
  <rect width="1100" height="850" fill="url(#g)"/>
  <rect width="1100" height="850" fill="url(#dots)"/>
  <circle cx="902" cy="170" r="255" fill="#14a0b3" opacity="0.06"/>
  <circle cx="165" cy="748" r="187" fill="#14a0b3" opacity="0.05"/>
  <g transform="translate(473.5 305.65999999999997) scale(6.375)">
    <path d="M8 3.5c1.4 0 1.9.8 4 .8s2.6-.8 4-.8c2.2 0 3.5 1.8 3.5 4.4 0 2.4-1 3.6-1.6 6.3-.5 2.4-.6 6.3-2.6 6.3-1.7 0-1.5-4.2-3.3-4.2s-1.6 4.2-3.3 4.2c-2 0-2.1-3.9-2.6-6.3C5.5 11.5 4.5 10.3 4.5 7.9 4.5 5.3 5.8 3.5 8 3.5z" fill="#14a0b3" opacity="0.4"/>
  </g>
  <text x="550" y="519.86" text-anchor="middle"
    font-family="system-ui, -apple-system, Segoe UI, sans-serif" font-size="36"
    font-weight="600" fill="#0a5b66" opacity="0.75">Photo: new patient consultation</text>
  <text x="550" y="573.86" text-anchor="middle"
    font-family="system-ui, -apple-system, Segoe UI, sans-serif" font-size="25.919999999999998"
    fill="#0a5b66" opacity="0.45">1100 × 850 — replace with real photo</text>
</svg>
